<?xml version="1.0" encoding="utf-8"?>
<svg version="1.1" id="Layer_1"
xmlns="http://www.w3.org/2000/svg"
xmlns:xlink="http://www.w3.org/1999/xlink"
width="550px" height="400px"
xml:space="preserve">
<g id="PathID_1" transform="matrix(1.18628, 0, 0, 1.18628, 216.75, 254.2)" opacity="1">
<path style="fill:#9E1102;fill-opacity:1" d="M23.95 -13.2L5.05 -13.2Q5.15 -8.75 7.4 -6.45Q9.45 -4.35 12.85 -4.35Q17.4 -4.35 19.9 -7.5L22.65 -3.2Q20.95 -1.6 18.3 -0.65Q15.65 0.3 13.05 0.3Q7.35 0.3 3.55 -3.15Q-0.6 -6.95 -0.6 -13.65Q-0.6 -20.4 3.25 -24.15Q6.75 -27.6 12.45 -27.6Q17 -27.6 20.4 -24.55Q24.15 -21.2 24.15 -15.7Q24.15 -14.45 23.95 -13.2M18.25 -17.4Q18.2 -20.15 16.25 -21.7Q14.55 -23.1 12.1 -23.1Q6.7 -23.1 5.4 -17.4L18.25 -17.4" />
</g>
<g id="PathID_2" transform="matrix(1.18628, 0, 0, 1.18628, 216.75, 254.2)" opacity="1">
</g>
<g id="PathID_3" transform="matrix(1.18628, 0, 0, 1.18628, 248.25, 254.2)" opacity="1">
<path style="fill:#9E1102;fill-opacity:1" d="M22.45 0L17.15 0L17.15 -18.4Q17.15 -21.05 15.6 -22.4Q14.3 -23.55 12.05 -23.55Q9.45 -23.55 7.6 -22Q5.35 -20.1 5.35 -16.35L5.35 0L0 0L0 -27.3L2.95 -27.3L4.9 -24Q7.9 -27.95 13.3 -27.95Q17.5 -27.95 19.95 -25.55Q22.45 -23.05 22.45 -18.45L22.45 0" />
</g>
<g id="PathID_4" transform="matrix(1.18628, 0, 0, 1.18628, 248.25, 254.2)" opacity="1">
</g>
<g id="PathID_5" transform="matrix(1.18628, 0, 0, 1.18628, 280, 254.2)" opacity="1">
<path style="fill:#9E1102;fill-opacity:1" d="M22.45 0L17.15 0L17.15 -18.4Q17.15 -21.05 15.6 -22.4Q14.3 -23.55 12.05 -23.55Q9.45 -23.55 7.6 -22Q5.35 -20.1 5.35 -16.35L5.35 0L0 0L0 -27.3L2.95 -27.3L4.9 -24Q7.9 -27.95 13.3 -27.95Q17.5 -27.95 19.95 -25.55Q22.45 -23.05 22.45 -18.45L22.45 0" />
</g>
<g id="PathID_6" transform="matrix(1.18628, 0, 0, 1.18628, 280, 254.2)" opacity="1">
</g>
<g id="PathID_7" transform="matrix(1.18628, 0, 0, 1.18628, 311.7, 254.2)" opacity="1">
<path style="fill:#9E1102;fill-opacity:1" d="M19.1 -18.25L19.1 0L16.9 0L14.3 -3Q11.65 0.3 7.4 0.3Q3.5 0.3 0.9 -2.15Q-1.75 -4.7 -1.75 -8.6Q-1.75 -12.8 0.9 -15.25Q3.55 -17.65 8.1 -17.65L13.8 -17.65Q13.7 -20.6 12 -22.05Q10.55 -23.3 8.35 -23.3Q4.75 -23.3 2 -21.05L0.35 -25.8Q1.6 -26.55 4.25 -27.1Q6.75 -27.65 8.35 -27.65Q12.95 -27.65 15.85 -25.4Q19.1 -22.9 19.1 -18.25M13.8 -9.9L13.8 -13.45L9.05 -13.45Q6.5 -13.45 5.05 -12.2Q3.6 -11 3.6 -8.85Q3.6 -6.85 4.9 -5.55Q6.3 -4.25 8.4 -4.25Q10.7 -4.25 12.15 -5.55Q13.8 -7.05 13.8 -9.9" />
</g>
<g id="PathID_8" transform="matrix(1.18628, 0, 0, 1.18628, 311.7, 254.2)" opacity="1">
</g>
<g id="PathID_9" transform="matrix(1.18628, 0, 0, 1.18628, 339, 254.2)" opacity="1">
<path style="fill:#9E1102;fill-opacity:1" d="M12.3 -36.4Q10.8 -36.6 9.75 -36.6Q7.4 -36.6 6.4 -35.65Q5.35 -34.65 5.35 -32.3L5.35 -27.3L11.95 -27.3L11.95 -22.85L5.35 -22.85L5.35 0L0 0L0 -32.7Q0 -40.95 10.3 -40.95L11.7 -40.9L12.3 -36.4" />
</g>
<g id="PathID_10" transform="matrix(1.18628, 0, 0, 1.18628, 339, 254.2)" opacity="1">
</g>
<g id="PathID_11" transform="matrix(1.18628, 0, 0, 1.18628, 356.5, 254.2)" opacity="1">
<path style="fill:#9E1102;fill-opacity:1" d="M14.6 -26.8L13.75 -21.6Q12.5 -23.4 9.75 -23.4Q5.35 -23.4 5.35 -16.15L5.35 0L0 0L0 -27.3L2.95 -27.3L4.65 -24.45Q6.6 -27.95 10.55 -27.95Q13.3 -27.95 14.6 -26.8" />
</g>
<g id="PathID_12" transform="matrix(1.18628, 0, 0, 1.18628, 356.5, 254.2)" opacity="1">
</g>
<g id="PathID_13" transform="matrix(1.18628, 0, 0, 1.18628, 375.75, 254.2)" opacity="1">
<path style="fill:#9E1102;fill-opacity:1" d="M6.55 -37.65Q6.55 -36.3 5.6 -35.35Q4.65 -34.4 3.3 -34.4Q1.95 -34.4 0.95 -35.35Q0 -36.3 0 -37.65Q0 -39 0.95 -40Q1.95 -40.95 3.3 -40.95Q4.65 -40.95 5.6 -40Q6.55 -39 6.55 -37.65M5.95 0L0.6 0L0.6 -27.3L5.95 -27.3L5.95 0" />
</g>
<g id="PathID_14" transform="matrix(1.18628, 0, 0, 1.18628, 375.75, 254.2)" opacity="1">
</g>
<g id="PathID_15" transform="matrix(1.18628, 0, 0, 1.18628, 388.6, 254.2)" opacity="1">
<path style="fill:#9E1102;fill-opacity:1" d="M21.3 -3.15Q17.55 0.3 12.1 0.3Q6.3 0.3 2.5 -3.4Q-1.4 -7.25 -1.4 -13.65Q-1.4 -19.9 2.55 -23.85Q6.35 -27.6 11.9 -27.6Q16.85 -27.6 20.75 -25.3L19.2 -20Q16.7 -23.2 12.1 -23.2Q8.8 -23.2 6.55 -20.5Q4.25 -17.75 4.25 -13.65Q4.25 -9.1 6.6 -6.55Q8.8 -4.15 12.3 -4.15Q16.6 -4.15 19.3 -7.8L21.3 -3.15" />
</g>
<g id="PathID_16" transform="matrix(1.18628, 0, 0, 1.18628, 388.6, 254.2)" opacity="1">
</g>
<g id="PathID_17" transform="matrix(0.724528, 0, 0, 0.724528, -27.75, -232)" opacity="1">
<path style="fill:#9E1102;fill-opacity:1" d="M371.55 531.3Q368.85 532.65 365.95 533.65Q363.1 534.6 360.4 535.15Q357.75 535.7 355.9 535.75Q353.4 535.8 349.4 535.6L341.7 535.25L335.25 534.8L332.55 534.65Q338.4 530.1 341.25 526.15Q344.15 522.2 346.1 518.65Q348.1 515.15 350.2 512Q352.35 508.85 356.7 505.95Q361.45 502.95 367.1 500.7Q372.75 498.4 378.35 497.3Q384 496.15 389.15 496.35Q394.3 496.55 398.05 498.55Q392.6 502 390.15 505.7Q387.7 509.35 386.05 513.15Q384.4 516.9 382.45 520.7Q380.55 524.5 376.3 528.25Q374.3 529.9 371.55 531.3" />
</g>
<g id="PathID_18" transform="matrix(0.724528, 0, 0, 0.724528, -27.75, -232)" opacity="1">
</g>
<g id="PathID_19" transform="matrix(4.21875, 0, 0, 2.22656, 85, 257.55)" opacity="1">
<path style="fill:#9E1102;fill-opacity:1" d="M36.4 -32.75L29.9 -13.55Q29.05 -11.05 28.2 -9.3Q27.4 -7.55 26.05 -5.75Q23.8 -2.7 20.35 -1Q16.9 0.65 12.8 0.65Q9.05 0.65 6.95 -0.5Q4.9 -1.7 4.25 -4.3Q3.9 -5.7 4 -7.5Q4.15 -9.35 4.75 -11Q5.3 -12.75 6.6 -13.7Q7.9 -14.65 9.45 -14.65Q10.9 -14.65 11.35 -13.75Q11.8 -12.9 11.6 -11.1Q11.4 -9.2 11.4 -8.05Q11.45 -6.9 12.15 -6.05Q12.9 -5.25 14.75 -5.25Q19.65 -5.25 22.1 -12.45L29 -32.75Q29.8 -35 31.15 -36.15Q32.5 -37.3 34.2 -37.3Q35.95 -37.3 36.55 -36.15Q37.2 -35 36.4 -32.75" />
</g>
<g id="PathID_20" transform="matrix(4.21875, 0, 0, 2.22656, 85, 257.55)" opacity="1">
</g>
</svg>
